<?xml version="1.0" standalone="no"?>
<!DOCTYPE svg PUBLIC "-//W3C//DTD SVG 20010904//EN"
 "http://www.w3.org/TR/2001/REC-SVG-20010904/DTD/svg10.dtd">
<svg version="1.0" xmlns="http://www.w3.org/2000/svg"
 width="960.000000pt" height="960.000000pt" viewBox="0 0 960.000000 960.000000"
 preserveAspectRatio="xMidYMid meet">
<metadata>
Created by potrace 1.14, written by Peter Selinger 2001-2017
</metadata>
<g transform="translate(0.000000,960.000000) scale(0.100000,-0.100000)"
fill="#000000" stroke="none">
<path d="M4438 9595 c-2 -2 -48 -6 -103 -10 -160 -12 -245 -20 -296 -30 -12
-3 -59 -9 -103 -16 -44 -6 -83 -12 -87 -14 -3 -3 -25 -7 -49 -10 -23 -3 -45
-7 -49 -9 -3 -2 -22 -7 -41 -10 -42 -6 -221 -50 -270 -66 -19 -6 -44 -13 -55
-14 -11 -2 -81 -25 -155 -50 -74 -26 -140 -48 -146 -49 -7 -2 -19 -9 -28 -16
-9 -7 -16 -11 -16 -8 0 6 -73 -23 -190 -75 -75 -33 -320 -158 -330 -168 -3 -3
-16 -11 -30 -18 -14 -7 -50 -28 -80 -47 -30 -19 -63 -38 -72 -41 -10 -4 -18
-10 -18 -15 0 -5 -7 -9 -15 -9 -8 0 -15 -4 -15 -10 0 -5 -4 -10 -10 -10 -14 0
-217 -146 -286 -205 -12 -11 -37 -31 -55 -45 -141 -109 -442 -422 -544 -564
-11 -16 -29 -40 -41 -55 -40 -50 -119 -166 -137 -199 -10 -19 -27 -43 -38 -55
-10 -11 -19 -24 -19 -29 0 -4 -17 -36 -38 -70 -21 -35 -58 -103 -83 -153 -24
-49 -48 -93 -54 -97 -5 -4 -7 -8 -3 -8 3 0 -7 -28 -24 -62 -64 -131 -180 -465
-204 -588 -3 -14 -7 -33 -10 -42 -3 -9 -7 -26 -9 -37 -3 -12 -7 -31 -10 -43
-3 -13 -8 -39 -11 -58 -4 -19 -8 -44 -10 -55 -16 -87 -24 -137 -29 -180 -4
-27 -8 -61 -10 -75 -27 -160 -26 -737 1 -920 2 -19 6 -53 9 -75 4 -47 14 -112
20 -141 3 -12 7 -39 10 -60 4 -21 9 -48 12 -59 3 -11 7 -29 8 -40 2 -12 17
-75 35 -140 18 -66 33 -124 35 -130 1 -5 5 -17 8 -25 3 -8 13 -40 22 -70 15
-48 44 -130 70 -195 5 -11 9 -22 10 -25 32 -93 186 -401 250 -500 28 -45 155
-236 175 -265 30 -44 200 -253 239 -295 85 -91 214 -219 259 -257 30 -27 62
-55 71 -64 29 -29 181 -151 181 -145 0 3 12 -6 27 -20 14 -13 74 -56 132 -94
58 -39 111 -75 118 -80 7 -5 28 -17 47 -27 l35 -16 -24 -43 c-13 -23 -35 -60
-49 -83 -14 -22 -26 -43 -26 -46 0 -2 -15 -28 -33 -58 -41 -67 -258 -434 -291
-492 -7 -11 -27 -46 -46 -78 -86 -144 -162 -273 -195 -333 -17 -30 -36 -59
-43 -66 -7 -7 -12 -20 -12 -30 0 -10 -3 -18 -7 -18 -17 0 -97 -153 -123 -235
-12 -38 -24 -77 -27 -85 -24 -68 -24 -309 0 -400 41 -157 112 -283 222 -396
142 -146 301 -230 490 -261 74 -13 314 -8 340 6 11 6 13 7 60 16 16 3 45 13
65 21 109 48 150 69 150 78 0 5 3 6 6 3 9 -8 126 83 183 142 47 49 161 217
161 237 0 7 3 14 8 16 4 1 65 102 136 223 71 121 160 271 198 334 37 62 68
115 68 117 0 3 78 136 120 204 5 8 30 51 56 95 148 253 248 421 253 425 3 3 7
12 9 20 2 8 10 22 18 31 8 8 14 20 14 25 0 13 50 65 58 60 37 -22 591 -37 837
-23 138 9 188 13 353 33 42 5 188 28 252 40 14 2 41 7 60 10 19 3 42 7 50 10
8 3 26 8 40 10 14 3 61 14 105 26 44 11 85 21 90 22 99 23 390 122 499 170 17
8 56 24 86 37 87 37 351 172 413 213 32 20 60 36 62 36 6 0 206 131 221 145 6
5 22 17 34 25 21 14 150 111 174 131 6 5 22 19 36 30 113 94 312 287 400 390
25 29 57 66 73 82 15 17 27 33 27 36 0 3 13 20 28 38 52 60 62 73 145 195 107
157 198 312 269 458 72 148 164 370 166 400 0 3 7 23 16 45 17 45 62 196 70
235 3 14 10 43 15 65 5 22 12 52 15 68 2 15 7 35 10 45 3 9 7 35 11 56 3 21 7
48 10 60 5 26 16 92 20 126 1 14 5 52 9 85 15 131 17 155 21 298 2 81 7 152
10 157 4 6 3 10 -2 10 -4 0 -8 55 -9 123 -1 116 -9 256 -19 322 -2 17 -7 49
-9 73 -3 24 -13 84 -22 135 -9 51 -18 103 -19 117 -2 14 -4 26 -5 28 -3 3 -4
6 -19 77 -7 33 -15 67 -18 75 -4 8 -7 22 -8 30 -3 19 -63 219 -75 245 -5 11
-20 53 -34 93 -24 66 -36 97 -83 202 -34 76 -123 250 -147 289 -14 22 -26 45
-26 51 0 5 -4 10 -9 10 -5 0 -11 8 -14 18 -6 18 -38 74 -48 82 -3 3 -18 25
-32 50 -14 25 -36 55 -47 68 -11 12 -17 22 -13 22 4 0 3 4 -2 8 -6 4 -28 32
-50 62 -22 30 -44 60 -50 67 -5 7 -14 18 -20 25 -39 50 -92 114 -112 134 -12
13 -23 26 -23 29 0 7 -264 271 -325 326 -60 53 -237 193 -292 230 -26 18 -49
36 -51 41 -2 4 -10 8 -18 8 -8 0 -14 4 -14 9 0 5 -9 13 -20 16 -11 3 -26 12
-32 18 -13 12 -150 97 -178 110 -8 4 -42 23 -75 43 -53 31 -262 135 -355 177
-106 47 -425 164 -475 173 -5 1 -30 7 -55 15 -25 7 -49 13 -55 15 -5 1 -30 7
-55 14 -25 7 -53 14 -62 16 -10 2 -27 6 -38 9 -37 9 -95 21 -145 30 -16 3 -68
12 -115 20 -47 8 -103 17 -125 20 -22 2 -60 8 -85 11 -25 3 -67 8 -95 10 -27
2 -72 6 -100 9 -56 6 -682 15 -687 10z m587 -1079 c17 -3 68 -10 115 -16 47
-5 94 -12 105 -14 75 -13 93 -17 115 -22 14 -3 41 -9 60 -14 19 -4 69 -18 110
-29 41 -12 82 -23 90 -26 111 -31 369 -145 505 -223 125 -72 309 -201 400
-282 142 -125 308 -307 396 -435 19 -27 37 -52 40 -55 32 -29 193 -325 244
-450 14 -36 30 -74 35 -85 12 -24 79 -231 84 -260 3 -11 12 -51 21 -90 20 -84
24 -101 30 -140 2 -16 6 -41 9 -55 7 -36 18 -119 21 -165 2 -22 6 -76 10 -120
12 -141 6 -489 -9 -572 -2 -10 -7 -43 -11 -73 -4 -30 -9 -64 -11 -75 -8 -56
-15 -101 -20 -114 -2 -7 -11 -48 -20 -89 -9 -42 -32 -126 -52 -186 -20 -61
-37 -113 -37 -116 -9 -34 -79 -196 -111 -257 -18 -35 -30 -63 -26 -63 4 0 3
-4 -3 -8 -5 -4 -21 -27 -34 -52 -13 -25 -31 -53 -39 -62 -8 -10 -11 -18 -6
-18 5 0 4 -4 -2 -8 -5 -4 -21 -25 -34 -47 -13 -22 -28 -44 -32 -50 -4 -5 -36
-48 -70 -95 -34 -47 -66 -90 -72 -96 -6 -7 -27 -31 -46 -54 -72 -88 -228 -237
-335 -320 -38 -30 -71 -58 -73 -62 -2 -5 -8 -8 -13 -8 -5 0 -40 -22 -79 -50
-38 -27 -70 -47 -70 -42 0 4 -4 2 -8 -4 -12 -19 -343 -194 -366 -194 -2 0 -21
-8 -42 -17 -22 -9 -43 -18 -49 -19 -5 -1 -23 -7 -40 -14 -16 -6 -32 -12 -35
-12 -3 0 -30 -9 -60 -20 -30 -11 -66 -22 -80 -24 -14 -2 -36 -9 -50 -14 -27
-10 -204 -48 -260 -55 -19 -3 -53 -8 -75 -11 -78 -11 -91 -13 -200 -20 -139
-10 -321 -10 -450 0 -55 4 -116 9 -135 11 -19 1 -48 5 -65 9 -16 3 -50 8 -75
11 -25 3 -65 10 -90 15 -117 27 -249 60 -287 74 -22 8 -44 12 -47 9 -3 -4 -6
0 -6 7 0 7 -3 11 -6 7 -4 -3 -19 0 -35 9 -16 8 -32 15 -36 15 -52 7 -376 161
-433 206 -8 6 -17 11 -20 11 -4 -1 -51 28 -115 72 -12 8 -42 28 -66 45 -24 16
-49 34 -55 40 -6 5 -30 26 -54 45 -197 159 -376 359 -514 575 -93 144 -93 144
-113 185 -9 19 -21 38 -26 41 -5 3 -8 8 -7 10 2 2 -15 42 -37 89 -35 72 -110
263 -118 295 -1 6 -5 17 -8 25 -4 8 -9 26 -11 40 -3 14 -5 25 -6 25 -2 0 -3 6
-25 90 -8 33 -17 70 -19 83 -3 12 -7 30 -10 40 -5 16 -13 63 -20 122 -9 72
-18 135 -21 151 -22 112 -21 525 1 691 2 18 6 53 9 78 15 133 69 381 102 470
3 8 7 20 8 25 5 22 35 104 64 175 17 41 31 79 31 84 0 5 6 17 13 25 8 9 22 36
31 61 10 25 21 47 24 50 4 3 21 32 37 64 42 84 185 296 263 391 96 117 252
270 372 363 58 45 112 89 121 97 9 8 19 15 22 15 4 0 26 14 49 30 22 17 47 30
54 30 7 0 14 4 16 8 7 17 260 152 284 152 8 0 14 4 14 8 0 5 15 14 33 20 17 6
82 29 142 52 61 23 120 43 132 46 12 2 33 8 45 13 13 5 26 9 30 10 4 1 13 3
20 5 37 11 164 38 248 51 140 24 138 24 225 30 44 4 82 9 84 11 6 5 480 -3
516 -10z"/>
<path d="M6028 7485 c-2 -2 -32 -6 -67 -9 -36 -4 -67 -9 -71 -11 -3 -2 -18 -6
-33 -9 -131 -24 -416 -190 -527 -307 -62 -66 -97 -107 -120 -139 -13 -19 -30
-39 -37 -43 -7 -4 -13 -12 -13 -17 0 -4 -25 -45 -55 -90 -30 -45 -55 -83 -55
-85 0 -2 -13 -26 -28 -52 -71 -121 -292 -553 -298 -583 -3 -17 -35 -80 -43
-84 -5 -3 -16 9 -25 27 -8 17 -24 45 -35 61 -11 17 -18 33 -15 38 3 4 0 8 -5
8 -6 0 -11 7 -11 15 0 8 -3 15 -8 15 -4 0 -15 17 -25 38 -9 20 -30 60 -46 87
-17 28 -37 64 -45 80 -9 17 -30 53 -46 80 -17 28 -34 57 -37 65 -4 8 -9 17
-12 20 -3 3 -32 44 -63 92 -64 97 -66 100 -154 202 -159 184 -336 300 -512
335 -67 14 -184 14 -242 0 -25 -6 -52 -12 -60 -14 -34 -8 -128 -55 -180 -90
-224 -154 -375 -427 -394 -715 -5 -72 -9 -212 -5 -220 1 -3 3 -23 5 -45 3 -50
12 -130 14 -130 1 0 3 -9 4 -20 2 -11 9 -47 16 -80 7 -33 13 -65 14 -72 1 -7
5 -16 9 -19 4 -4 7 -18 7 -31 0 -13 4 -31 9 -41 5 -9 23 -57 41 -107 38 -104
118 -278 131 -283 5 -2 9 -10 9 -18 0 -8 16 -40 35 -70 19 -30 35 -59 35 -64
0 -6 5 -10 10 -10 6 0 10 -5 10 -10 0 -6 33 -58 73 -117 39 -58 77 -113 82
-121 6 -9 15 -21 20 -27 6 -7 21 -27 35 -46 77 -103 271 -329 438 -508 29 -31
356 -370 527 -546 33 -34 83 -87 110 -119 28 -31 71 -80 97 -109 26 -29 50
-59 53 -68 7 -20 67 -12 85 11 3 4 12 11 21 16 55 31 339 306 509 493 41 45
93 101 115 125 22 24 67 74 100 111 33 37 65 73 71 79 10 11 39 44 163 185 31
36 65 75 76 87 11 12 39 44 61 71 23 26 52 59 63 73 12 14 42 49 67 77 25 29
55 65 67 80 12 16 34 40 49 56 15 15 28 31 28 35 0 4 8 15 18 23 18 16 30 30
97 114 22 28 44 55 50 61 39 45 95 122 95 133 0 5 6 14 13 18 8 4 22 24 33 43
10 19 22 37 25 40 18 15 148 265 174 335 11 28 23 53 28 56 5 3 8 8 7 10 -3 6
21 92 28 104 4 6 7 15 8 20 1 6 7 30 14 55 7 25 11 45 10 45 -1 0 4 14 10 30
7 17 14 46 16 65 2 19 9 60 14 90 24 136 27 381 5 485 -2 11 -8 44 -14 73 -27
137 -78 266 -147 372 -44 67 -144 180 -160 180 -5 0 -21 11 -36 25 -15 14 -34
25 -42 25 -8 0 -17 4 -21 9 -10 18 -204 67 -217 56z"/>
</g>
</svg>
